<?xml version="1.0" encoding="UTF-8"?><svg xmlns="http://www.w3.org/2000/svg" xmlns:xlink="http://www.w3.org/1999/xlink" stroke-dasharray="none" shape-rendering="auto" font-family="'Dialog'" width="1260" text-rendering="auto" fill-opacity="1" contentScriptType="text/ecmascript" color-interpolation="auto" color-rendering="auto" preserveAspectRatio="xMidYMid meet" font-size="12" fill="black" stroke="black" image-rendering="auto" stroke-miterlimit="10" zoomAndPan="magnify" version="1.0" stroke-linecap="square" stroke-linejoin="miter" contentStyleType="text/css" font-style="normal" height="394" stroke-width="1" stroke-dashoffset="0" font-weight="normal" stroke-opacity="1">
<!--Generated by the Batik Graphics2D SVG Generator-->
<defs id="genericDefs"/>
<g>
<defs id="defs1">
<clipPath clipPathUnits="userSpaceOnUse" id="clipPath1">
<path d="M28 38 L1232 38 L1232 372 L28 372 L28 38 Z"/>
</clipPath>
<clipPath clipPathUnits="userSpaceOnUse" id="clipPath2">
<path d="M-1 -1 L1261 -1 L1261 395 L-1 395 L-1 -1 Z"/>
</clipPath>
</defs>
<g font-size="15" fill="white" text-rendering="geometricPrecision" font-family="'Ubuntu'" stroke-linejoin="round" stroke="white" stroke-width="0" stroke-miterlimit="0">
<rect x="29" y="39" clip-path="url(#clipPath1)" width="1202" height="332" stroke="none"/>
</g>
<g font-size="15" stroke-linecap="butt" fill="rgb(204,204,204)" text-rendering="geometricPrecision" font-family="'Ubuntu'" stroke-dasharray="3,3" stroke="rgb(204,204,204)">
<line clip-path="url(#clipPath1)" fill="none" x1="29" x2="29" y1="39" y2="371"/>
<line clip-path="url(#clipPath1)" fill="none" x1="89" x2="89" y1="39" y2="371"/>
<line clip-path="url(#clipPath1)" fill="none" x1="149" x2="149" y1="39" y2="371"/>
<line clip-path="url(#clipPath1)" fill="none" x1="209" x2="209" y1="39" y2="371"/>
<line clip-path="url(#clipPath1)" fill="none" x1="269" x2="269" y1="39" y2="371"/>
<line clip-path="url(#clipPath1)" fill="none" x1="329" x2="329" y1="39" y2="371"/>
<line clip-path="url(#clipPath1)" fill="none" x1="389" x2="389" y1="39" y2="371"/>
<line clip-path="url(#clipPath1)" fill="none" x1="449" x2="449" y1="39" y2="371"/>
<line clip-path="url(#clipPath1)" fill="none" x1="509" x2="509" y1="39" y2="371"/>
<line clip-path="url(#clipPath1)" fill="none" x1="569" x2="569" y1="39" y2="371"/>
<line clip-path="url(#clipPath1)" fill="none" x1="630" x2="630" y1="39" y2="371"/>
<line clip-path="url(#clipPath1)" fill="none" x1="690" x2="690" y1="39" y2="371"/>
<line clip-path="url(#clipPath1)" fill="none" x1="750" x2="750" y1="39" y2="371"/>
<line clip-path="url(#clipPath1)" fill="none" x1="810" x2="810" y1="39" y2="371"/>
<line clip-path="url(#clipPath1)" fill="none" x1="870" x2="870" y1="39" y2="371"/>
<line clip-path="url(#clipPath1)" fill="none" x1="930" x2="930" y1="39" y2="371"/>
<line clip-path="url(#clipPath1)" fill="none" x1="990" x2="990" y1="39" y2="371"/>
<line clip-path="url(#clipPath1)" fill="none" x1="1050" x2="1050" y1="39" y2="371"/>
<line clip-path="url(#clipPath1)" fill="none" x1="1110" x2="1110" y1="39" y2="371"/>
<line clip-path="url(#clipPath1)" fill="none" x1="1170" x2="1170" y1="39" y2="371"/>
<line clip-path="url(#clipPath1)" fill="none" x1="29" x2="1231" y1="371" y2="371"/>
<line clip-path="url(#clipPath1)" fill="none" x1="29" x2="1231" y1="246" y2="246"/>
<line clip-path="url(#clipPath1)" fill="none" x1="29" x2="1231" y1="121" y2="121"/>
<rect x="27" y="119" clip-path="url(#clipPath1)" fill="rgb(0,0,139)" width="5" height="5" stroke="none"/>
<circle clip-path="url(#clipPath1)" fill="rgb(238,0,0)" r="2" cx="29" cy="121" stroke="none"/>
<polygon fill="rgb(0,100,0)" clip-path="url(#clipPath1)" points=" 29 118 32 123 26 123 29 118" stroke="none"/>
<polygon fill="rgb(255,165,0)" clip-path="url(#clipPath1)" points=" 26 121 29 118 32 121 29 124 26 121" stroke="none"/>
<line clip-path="url(#clipPath1)" fill="none" x1="27" x2="31" y1="119" y2="123" stroke-dasharray="none" stroke="green"/>
<line clip-path="url(#clipPath1)" fill="none" x1="27" x2="31" y1="123" y2="119" stroke-dasharray="none" stroke="green"/>
<rect x="29" y="39" clip-path="url(#clipPath2)" fill="none" width="1202" stroke-dasharray="none" height="332" stroke="black"/>
</g>
<g text-rendering="geometricPrecision" font-size="13" stroke-linecap="butt">
<text xml:space="preserve" x="572" y="13" clip-path="url(#clipPath2)" stroke="none">mean(ft-size:vector)</text>
<line clip-path="url(#clipPath2)" fill="none" x1="29" x2="1231" y1="37" y2="37"/>
<line clip-path="url(#clipPath2)" fill="none" x1="29" x2="1231" y1="373" y2="373"/>
<line clip-path="url(#clipPath2)" fill="none" x1="29" x2="29" y1="33" y2="37"/>
<line clip-path="url(#clipPath2)" fill="none" x1="29" x2="29" y1="377" y2="373"/>
<text font-size="11" x="23" y="30" clip-path="url(#clipPath2)" stroke="none" xml:space="preserve">0.0</text>
<text font-size="11" x="23" y="389" clip-path="url(#clipPath2)" stroke="none" xml:space="preserve">0.0</text>
<line clip-path="url(#clipPath2)" fill="none" x1="41" x2="41" y1="35" y2="37"/>
<line clip-path="url(#clipPath2)" fill="none" x1="41" x2="41" y1="375" y2="373"/>
<line clip-path="url(#clipPath2)" fill="none" x1="53" x2="53" y1="35" y2="37"/>
<line clip-path="url(#clipPath2)" fill="none" x1="53" x2="53" y1="375" y2="373"/>
<line clip-path="url(#clipPath2)" fill="none" x1="65" x2="65" y1="35" y2="37"/>
<line clip-path="url(#clipPath2)" fill="none" x1="65" x2="65" y1="375" y2="373"/>
<line clip-path="url(#clipPath2)" fill="none" x1="77" x2="77" y1="35" y2="37"/>
<line clip-path="url(#clipPath2)" fill="none" x1="77" x2="77" y1="375" y2="373"/>
<line clip-path="url(#clipPath2)" fill="none" x1="89" x2="89" y1="33" y2="37"/>
<line clip-path="url(#clipPath2)" fill="none" x1="89" x2="89" y1="377" y2="373"/>
<text font-size="11" x="80" y="30" clip-path="url(#clipPath2)" stroke="none" xml:space="preserve">0.05</text>
<text font-size="11" x="80" y="389" clip-path="url(#clipPath2)" stroke="none" xml:space="preserve">0.05</text>
<line clip-path="url(#clipPath2)" fill="none" x1="101" x2="101" y1="35" y2="37"/>
<line clip-path="url(#clipPath2)" fill="none" x1="101" x2="101" y1="375" y2="373"/>
<line clip-path="url(#clipPath2)" fill="none" x1="113" x2="113" y1="35" y2="37"/>
<line clip-path="url(#clipPath2)" fill="none" x1="113" x2="113" y1="375" y2="373"/>
<line clip-path="url(#clipPath2)" fill="none" x1="125" x2="125" y1="35" y2="37"/>
<line clip-path="url(#clipPath2)" fill="none" x1="125" x2="125" y1="375" y2="373"/>
<line clip-path="url(#clipPath2)" fill="none" x1="137" x2="137" y1="35" y2="37"/>
<line clip-path="url(#clipPath2)" fill="none" x1="137" x2="137" y1="375" y2="373"/>
<line clip-path="url(#clipPath2)" fill="none" x1="149" x2="149" y1="33" y2="37"/>
<line clip-path="url(#clipPath2)" fill="none" x1="149" x2="149" y1="377" y2="373"/>
<text font-size="11" x="140" y="30" clip-path="url(#clipPath2)" stroke="none" xml:space="preserve">0.10</text>
<text font-size="11" x="140" y="389" clip-path="url(#clipPath2)" stroke="none" xml:space="preserve">0.10</text>
<line clip-path="url(#clipPath2)" fill="none" x1="161" x2="161" y1="35" y2="37"/>
<line clip-path="url(#clipPath2)" fill="none" x1="161" x2="161" y1="375" y2="373"/>
<line clip-path="url(#clipPath2)" fill="none" x1="173" x2="173" y1="35" y2="37"/>
<line clip-path="url(#clipPath2)" fill="none" x1="173" x2="173" y1="375" y2="373"/>
<line clip-path="url(#clipPath2)" fill="none" x1="185" x2="185" y1="35" y2="37"/>
<line clip-path="url(#clipPath2)" fill="none" x1="185" x2="185" y1="375" y2="373"/>
<line clip-path="url(#clipPath2)" fill="none" x1="197" x2="197" y1="35" y2="37"/>
<line clip-path="url(#clipPath2)" fill="none" x1="197" x2="197" y1="375" y2="373"/>
<line clip-path="url(#clipPath2)" fill="none" x1="209" x2="209" y1="33" y2="37"/>
<line clip-path="url(#clipPath2)" fill="none" x1="209" x2="209" y1="377" y2="373"/>
<text font-size="11" x="200" y="30" clip-path="url(#clipPath2)" stroke="none" xml:space="preserve">0.15</text>
<text font-size="11" x="200" y="389" clip-path="url(#clipPath2)" stroke="none" xml:space="preserve">0.15</text>
<line clip-path="url(#clipPath2)" fill="none" x1="221" x2="221" y1="35" y2="37"/>
<line clip-path="url(#clipPath2)" fill="none" x1="221" x2="221" y1="375" y2="373"/>
<line clip-path="url(#clipPath2)" fill="none" x1="233" x2="233" y1="35" y2="37"/>
<line clip-path="url(#clipPath2)" fill="none" x1="233" x2="233" y1="375" y2="373"/>
<line clip-path="url(#clipPath2)" fill="none" x1="245" x2="245" y1="35" y2="37"/>
<line clip-path="url(#clipPath2)" fill="none" x1="245" x2="245" y1="375" y2="373"/>
<line clip-path="url(#clipPath2)" fill="none" x1="257" x2="257" y1="35" y2="37"/>
<line clip-path="url(#clipPath2)" fill="none" x1="257" x2="257" y1="375" y2="373"/>
<line clip-path="url(#clipPath2)" fill="none" x1="269" x2="269" y1="33" y2="37"/>
<line clip-path="url(#clipPath2)" fill="none" x1="269" x2="269" y1="377" y2="373"/>
<text font-size="11" x="260" y="30" clip-path="url(#clipPath2)" stroke="none" xml:space="preserve">0.20</text>
<text font-size="11" x="260" y="389" clip-path="url(#clipPath2)" stroke="none" xml:space="preserve">0.20</text>
<line clip-path="url(#clipPath2)" fill="none" x1="281" x2="281" y1="35" y2="37"/>
<line clip-path="url(#clipPath2)" fill="none" x1="281" x2="281" y1="375" y2="373"/>
<line clip-path="url(#clipPath2)" fill="none" x1="293" x2="293" y1="35" y2="37"/>
<line clip-path="url(#clipPath2)" fill="none" x1="293" x2="293" y1="375" y2="373"/>
<line clip-path="url(#clipPath2)" fill="none" x1="305" x2="305" y1="35" y2="37"/>
<line clip-path="url(#clipPath2)" fill="none" x1="305" x2="305" y1="375" y2="373"/>
<line clip-path="url(#clipPath2)" fill="none" x1="317" x2="317" y1="35" y2="37"/>
<line clip-path="url(#clipPath2)" fill="none" x1="317" x2="317" y1="375" y2="373"/>
<line clip-path="url(#clipPath2)" fill="none" x1="329" x2="329" y1="33" y2="37"/>
<line clip-path="url(#clipPath2)" fill="none" x1="329" x2="329" y1="377" y2="373"/>
<text font-size="11" x="320" y="30" clip-path="url(#clipPath2)" stroke="none" xml:space="preserve">0.25</text>
<text font-size="11" x="320" y="389" clip-path="url(#clipPath2)" stroke="none" xml:space="preserve">0.25</text>
<line clip-path="url(#clipPath2)" fill="none" x1="341" x2="341" y1="35" y2="37"/>
<line clip-path="url(#clipPath2)" fill="none" x1="341" x2="341" y1="375" y2="373"/>
<line clip-path="url(#clipPath2)" fill="none" x1="353" x2="353" y1="35" y2="37"/>
<line clip-path="url(#clipPath2)" fill="none" x1="353" x2="353" y1="375" y2="373"/>
<line clip-path="url(#clipPath2)" fill="none" x1="365" x2="365" y1="35" y2="37"/>
<line clip-path="url(#clipPath2)" fill="none" x1="365" x2="365" y1="375" y2="373"/>
<line clip-path="url(#clipPath2)" fill="none" x1="377" x2="377" y1="35" y2="37"/>
<line clip-path="url(#clipPath2)" fill="none" x1="377" x2="377" y1="375" y2="373"/>
<line clip-path="url(#clipPath2)" fill="none" x1="389" x2="389" y1="33" y2="37"/>
<line clip-path="url(#clipPath2)" fill="none" x1="389" x2="389" y1="377" y2="373"/>
<text font-size="11" x="380" y="30" clip-path="url(#clipPath2)" stroke="none" xml:space="preserve">0.30</text>
<text font-size="11" x="380" y="389" clip-path="url(#clipPath2)" stroke="none" xml:space="preserve">0.30</text>
<line clip-path="url(#clipPath2)" fill="none" x1="401" x2="401" y1="35" y2="37"/>
<line clip-path="url(#clipPath2)" fill="none" x1="401" x2="401" y1="375" y2="373"/>
<line clip-path="url(#clipPath2)" fill="none" x1="413" x2="413" y1="35" y2="37"/>
<line clip-path="url(#clipPath2)" fill="none" x1="413" x2="413" y1="375" y2="373"/>
<line clip-path="url(#clipPath2)" fill="none" x1="425" x2="425" y1="35" y2="37"/>
<line clip-path="url(#clipPath2)" fill="none" x1="425" x2="425" y1="375" y2="373"/>
<line clip-path="url(#clipPath2)" fill="none" x1="437" x2="437" y1="35" y2="37"/>
<line clip-path="url(#clipPath2)" fill="none" x1="437" x2="437" y1="375" y2="373"/>
<line clip-path="url(#clipPath2)" fill="none" x1="449" x2="449" y1="33" y2="37"/>
<line clip-path="url(#clipPath2)" fill="none" x1="449" x2="449" y1="377" y2="373"/>
<text font-size="11" x="440" y="30" clip-path="url(#clipPath2)" stroke="none" xml:space="preserve">0.35</text>
<text font-size="11" x="440" y="389" clip-path="url(#clipPath2)" stroke="none" xml:space="preserve">0.35</text>
<line clip-path="url(#clipPath2)" fill="none" x1="461" x2="461" y1="35" y2="37"/>
<line clip-path="url(#clipPath2)" fill="none" x1="461" x2="461" y1="375" y2="373"/>
<line clip-path="url(#clipPath2)" fill="none" x1="473" x2="473" y1="35" y2="37"/>
<line clip-path="url(#clipPath2)" fill="none" x1="473" x2="473" y1="375" y2="373"/>
<line clip-path="url(#clipPath2)" fill="none" x1="485" x2="485" y1="35" y2="37"/>
<line clip-path="url(#clipPath2)" fill="none" x1="485" x2="485" y1="375" y2="373"/>
<line clip-path="url(#clipPath2)" fill="none" x1="497" x2="497" y1="35" y2="37"/>
<line clip-path="url(#clipPath2)" fill="none" x1="497" x2="497" y1="375" y2="373"/>
<line clip-path="url(#clipPath2)" fill="none" x1="509" x2="509" y1="33" y2="37"/>
<line clip-path="url(#clipPath2)" fill="none" x1="509" x2="509" y1="377" y2="373"/>
<text font-size="11" x="500" y="30" clip-path="url(#clipPath2)" stroke="none" xml:space="preserve">0.40</text>
<text font-size="11" x="500" y="389" clip-path="url(#clipPath2)" stroke="none" xml:space="preserve">0.40</text>
<line clip-path="url(#clipPath2)" fill="none" x1="521" x2="521" y1="35" y2="37"/>
<line clip-path="url(#clipPath2)" fill="none" x1="521" x2="521" y1="375" y2="373"/>
<line clip-path="url(#clipPath2)" fill="none" x1="533" x2="533" y1="35" y2="37"/>
<line clip-path="url(#clipPath2)" fill="none" x1="533" x2="533" y1="375" y2="373"/>
<line clip-path="url(#clipPath2)" fill="none" x1="545" x2="545" y1="35" y2="37"/>
<line clip-path="url(#clipPath2)" fill="none" x1="545" x2="545" y1="375" y2="373"/>
<line clip-path="url(#clipPath2)" fill="none" x1="557" x2="557" y1="35" y2="37"/>
<line clip-path="url(#clipPath2)" fill="none" x1="557" x2="557" y1="375" y2="373"/>
<line clip-path="url(#clipPath2)" fill="none" x1="569" x2="569" y1="33" y2="37"/>
<line clip-path="url(#clipPath2)" fill="none" x1="569" x2="569" y1="377" y2="373"/>
<text font-size="11" x="560" y="30" clip-path="url(#clipPath2)" stroke="none" xml:space="preserve">0.45</text>
<text font-size="11" x="560" y="389" clip-path="url(#clipPath2)" stroke="none" xml:space="preserve">0.45</text>
<line clip-path="url(#clipPath2)" fill="none" x1="581" x2="581" y1="35" y2="37"/>
<line clip-path="url(#clipPath2)" fill="none" x1="581" x2="581" y1="375" y2="373"/>
<line clip-path="url(#clipPath2)" fill="none" x1="593" x2="593" y1="35" y2="37"/>
<line clip-path="url(#clipPath2)" fill="none" x1="593" x2="593" y1="375" y2="373"/>
<line clip-path="url(#clipPath2)" fill="none" x1="605" x2="605" y1="35" y2="37"/>
<line clip-path="url(#clipPath2)" fill="none" x1="605" x2="605" y1="375" y2="373"/>
<line clip-path="url(#clipPath2)" fill="none" x1="617" x2="617" y1="35" y2="37"/>
<line clip-path="url(#clipPath2)" fill="none" x1="617" x2="617" y1="375" y2="373"/>
<line clip-path="url(#clipPath2)" fill="none" x1="630" x2="630" y1="33" y2="37"/>
<line clip-path="url(#clipPath2)" fill="none" x1="630" x2="630" y1="377" y2="373"/>
<text font-size="11" x="621" y="30" clip-path="url(#clipPath2)" stroke="none" xml:space="preserve">0.50</text>
<text font-size="11" x="621" y="389" clip-path="url(#clipPath2)" stroke="none" xml:space="preserve">0.50</text>
<line clip-path="url(#clipPath2)" fill="none" x1="642" x2="642" y1="35" y2="37"/>
<line clip-path="url(#clipPath2)" fill="none" x1="642" x2="642" y1="375" y2="373"/>
<line clip-path="url(#clipPath2)" fill="none" x1="654" x2="654" y1="35" y2="37"/>
<line clip-path="url(#clipPath2)" fill="none" x1="654" x2="654" y1="375" y2="373"/>
<line clip-path="url(#clipPath2)" fill="none" x1="666" x2="666" y1="35" y2="37"/>
<line clip-path="url(#clipPath2)" fill="none" x1="666" x2="666" y1="375" y2="373"/>
<line clip-path="url(#clipPath2)" fill="none" x1="678" x2="678" y1="35" y2="37"/>
<line clip-path="url(#clipPath2)" fill="none" x1="678" x2="678" y1="375" y2="373"/>
<line clip-path="url(#clipPath2)" fill="none" x1="690" x2="690" y1="33" y2="37"/>
<line clip-path="url(#clipPath2)" fill="none" x1="690" x2="690" y1="377" y2="373"/>
<text font-size="11" x="681" y="30" clip-path="url(#clipPath2)" stroke="none" xml:space="preserve">0.55</text>
<text font-size="11" x="681" y="389" clip-path="url(#clipPath2)" stroke="none" xml:space="preserve">0.55</text>
<line clip-path="url(#clipPath2)" fill="none" x1="702" x2="702" y1="35" y2="37"/>
<line clip-path="url(#clipPath2)" fill="none" x1="702" x2="702" y1="375" y2="373"/>
<line clip-path="url(#clipPath2)" fill="none" x1="714" x2="714" y1="35" y2="37"/>
<line clip-path="url(#clipPath2)" fill="none" x1="714" x2="714" y1="375" y2="373"/>
<line clip-path="url(#clipPath2)" fill="none" x1="726" x2="726" y1="35" y2="37"/>
<line clip-path="url(#clipPath2)" fill="none" x1="726" x2="726" y1="375" y2="373"/>
<line clip-path="url(#clipPath2)" fill="none" x1="738" x2="738" y1="35" y2="37"/>
<line clip-path="url(#clipPath2)" fill="none" x1="738" x2="738" y1="375" y2="373"/>
<line clip-path="url(#clipPath2)" fill="none" x1="750" x2="750" y1="33" y2="37"/>
<line clip-path="url(#clipPath2)" fill="none" x1="750" x2="750" y1="377" y2="373"/>
<text font-size="11" x="741" y="30" clip-path="url(#clipPath2)" stroke="none" xml:space="preserve">0.60</text>
<text font-size="11" x="741" y="389" clip-path="url(#clipPath2)" stroke="none" xml:space="preserve">0.60</text>
<line clip-path="url(#clipPath2)" fill="none" x1="762" x2="762" y1="35" y2="37"/>
<line clip-path="url(#clipPath2)" fill="none" x1="762" x2="762" y1="375" y2="373"/>
<line clip-path="url(#clipPath2)" fill="none" x1="774" x2="774" y1="35" y2="37"/>
<line clip-path="url(#clipPath2)" fill="none" x1="774" x2="774" y1="375" y2="373"/>
<line clip-path="url(#clipPath2)" fill="none" x1="786" x2="786" y1="35" y2="37"/>
<line clip-path="url(#clipPath2)" fill="none" x1="786" x2="786" y1="375" y2="373"/>
<line clip-path="url(#clipPath2)" fill="none" x1="798" x2="798" y1="35" y2="37"/>
<line clip-path="url(#clipPath2)" fill="none" x1="798" x2="798" y1="375" y2="373"/>
<line clip-path="url(#clipPath2)" fill="none" x1="810" x2="810" y1="33" y2="37"/>
<line clip-path="url(#clipPath2)" fill="none" x1="810" x2="810" y1="377" y2="373"/>
<text font-size="11" x="801" y="30" clip-path="url(#clipPath2)" stroke="none" xml:space="preserve">0.65</text>
<text font-size="11" x="801" y="389" clip-path="url(#clipPath2)" stroke="none" xml:space="preserve">0.65</text>
<line clip-path="url(#clipPath2)" fill="none" x1="822" x2="822" y1="35" y2="37"/>
<line clip-path="url(#clipPath2)" fill="none" x1="822" x2="822" y1="375" y2="373"/>
<line clip-path="url(#clipPath2)" fill="none" x1="834" x2="834" y1="35" y2="37"/>
<line clip-path="url(#clipPath2)" fill="none" x1="834" x2="834" y1="375" y2="373"/>
<line clip-path="url(#clipPath2)" fill="none" x1="846" x2="846" y1="35" y2="37"/>
<line clip-path="url(#clipPath2)" fill="none" x1="846" x2="846" y1="375" y2="373"/>
<line clip-path="url(#clipPath2)" fill="none" x1="858" x2="858" y1="35" y2="37"/>
<line clip-path="url(#clipPath2)" fill="none" x1="858" x2="858" y1="375" y2="373"/>
<line clip-path="url(#clipPath2)" fill="none" x1="870" x2="870" y1="33" y2="37"/>
<line clip-path="url(#clipPath2)" fill="none" x1="870" x2="870" y1="377" y2="373"/>
<text font-size="11" x="861" y="30" clip-path="url(#clipPath2)" stroke="none" xml:space="preserve">0.70</text>
<text font-size="11" x="861" y="389" clip-path="url(#clipPath2)" stroke="none" xml:space="preserve">0.70</text>
<line clip-path="url(#clipPath2)" fill="none" x1="882" x2="882" y1="35" y2="37"/>
<line clip-path="url(#clipPath2)" fill="none" x1="882" x2="882" y1="375" y2="373"/>
<line clip-path="url(#clipPath2)" fill="none" x1="894" x2="894" y1="35" y2="37"/>
<line clip-path="url(#clipPath2)" fill="none" x1="894" x2="894" y1="375" y2="373"/>
<line clip-path="url(#clipPath2)" fill="none" x1="906" x2="906" y1="35" y2="37"/>
<line clip-path="url(#clipPath2)" fill="none" x1="906" x2="906" y1="375" y2="373"/>
<line clip-path="url(#clipPath2)" fill="none" x1="918" x2="918" y1="35" y2="37"/>
<line clip-path="url(#clipPath2)" fill="none" x1="918" x2="918" y1="375" y2="373"/>
<line clip-path="url(#clipPath2)" fill="none" x1="930" x2="930" y1="33" y2="37"/>
<line clip-path="url(#clipPath2)" fill="none" x1="930" x2="930" y1="377" y2="373"/>
<text font-size="11" x="921" y="30" clip-path="url(#clipPath2)" stroke="none" xml:space="preserve">0.75</text>
<text font-size="11" x="921" y="389" clip-path="url(#clipPath2)" stroke="none" xml:space="preserve">0.75</text>
<line clip-path="url(#clipPath2)" fill="none" x1="942" x2="942" y1="35" y2="37"/>
<line clip-path="url(#clipPath2)" fill="none" x1="942" x2="942" y1="375" y2="373"/>
<line clip-path="url(#clipPath2)" fill="none" x1="954" x2="954" y1="35" y2="37"/>
<line clip-path="url(#clipPath2)" fill="none" x1="954" x2="954" y1="375" y2="373"/>
<line clip-path="url(#clipPath2)" fill="none" x1="966" x2="966" y1="35" y2="37"/>
<line clip-path="url(#clipPath2)" fill="none" x1="966" x2="966" y1="375" y2="373"/>
<line clip-path="url(#clipPath2)" fill="none" x1="978" x2="978" y1="35" y2="37"/>
<line clip-path="url(#clipPath2)" fill="none" x1="978" x2="978" y1="375" y2="373"/>
<line clip-path="url(#clipPath2)" fill="none" x1="990" x2="990" y1="33" y2="37"/>
<line clip-path="url(#clipPath2)" fill="none" x1="990" x2="990" y1="377" y2="373"/>
<text font-size="11" x="981" y="30" clip-path="url(#clipPath2)" stroke="none" xml:space="preserve">0.80</text>
<text font-size="11" x="981" y="389" clip-path="url(#clipPath2)" stroke="none" xml:space="preserve">0.80</text>
<line clip-path="url(#clipPath2)" fill="none" x1="1002" x2="1002" y1="35" y2="37"/>
<line clip-path="url(#clipPath2)" fill="none" x1="1002" x2="1002" y1="375" y2="373"/>
<line clip-path="url(#clipPath2)" fill="none" x1="1014" x2="1014" y1="35" y2="37"/>
<line clip-path="url(#clipPath2)" fill="none" x1="1014" x2="1014" y1="375" y2="373"/>
<line clip-path="url(#clipPath2)" fill="none" x1="1026" x2="1026" y1="35" y2="37"/>
<line clip-path="url(#clipPath2)" fill="none" x1="1026" x2="1026" y1="375" y2="373"/>
<line clip-path="url(#clipPath2)" fill="none" x1="1038" x2="1038" y1="35" y2="37"/>
<line clip-path="url(#clipPath2)" fill="none" x1="1038" x2="1038" y1="375" y2="373"/>
<line clip-path="url(#clipPath2)" fill="none" x1="1050" x2="1050" y1="33" y2="37"/>
<line clip-path="url(#clipPath2)" fill="none" x1="1050" x2="1050" y1="377" y2="373"/>
<text font-size="11" x="1041" y="30" clip-path="url(#clipPath2)" stroke="none" xml:space="preserve">0.85</text>
<text font-size="11" x="1041" y="389" clip-path="url(#clipPath2)" stroke="none" xml:space="preserve">0.85</text>
<line clip-path="url(#clipPath2)" fill="none" x1="1062" x2="1062" y1="35" y2="37"/>
<line clip-path="url(#clipPath2)" fill="none" x1="1062" x2="1062" y1="375" y2="373"/>
<line clip-path="url(#clipPath2)" fill="none" x1="1074" x2="1074" y1="35" y2="37"/>
<line clip-path="url(#clipPath2)" fill="none" x1="1074" x2="1074" y1="375" y2="373"/>
<line clip-path="url(#clipPath2)" fill="none" x1="1086" x2="1086" y1="35" y2="37"/>
<line clip-path="url(#clipPath2)" fill="none" x1="1086" x2="1086" y1="375" y2="373"/>
<line clip-path="url(#clipPath2)" fill="none" x1="1098" x2="1098" y1="35" y2="37"/>
<line clip-path="url(#clipPath2)" fill="none" x1="1098" x2="1098" y1="375" y2="373"/>
<line clip-path="url(#clipPath2)" fill="none" x1="1110" x2="1110" y1="33" y2="37"/>
<line clip-path="url(#clipPath2)" fill="none" x1="1110" x2="1110" y1="377" y2="373"/>
<text font-size="11" x="1101" y="30" clip-path="url(#clipPath2)" stroke="none" xml:space="preserve">0.90</text>
<text font-size="11" x="1101" y="389" clip-path="url(#clipPath2)" stroke="none" xml:space="preserve">0.90</text>
<line clip-path="url(#clipPath2)" fill="none" x1="1122" x2="1122" y1="35" y2="37"/>
<line clip-path="url(#clipPath2)" fill="none" x1="1122" x2="1122" y1="375" y2="373"/>
<line clip-path="url(#clipPath2)" fill="none" x1="1134" x2="1134" y1="35" y2="37"/>
<line clip-path="url(#clipPath2)" fill="none" x1="1134" x2="1134" y1="375" y2="373"/>
<line clip-path="url(#clipPath2)" fill="none" x1="1146" x2="1146" y1="35" y2="37"/>
<line clip-path="url(#clipPath2)" fill="none" x1="1146" x2="1146" y1="375" y2="373"/>
<line clip-path="url(#clipPath2)" fill="none" x1="1158" x2="1158" y1="35" y2="37"/>
<line clip-path="url(#clipPath2)" fill="none" x1="1158" x2="1158" y1="375" y2="373"/>
<line clip-path="url(#clipPath2)" fill="none" x1="1170" x2="1170" y1="33" y2="37"/>
<line clip-path="url(#clipPath2)" fill="none" x1="1170" x2="1170" y1="377" y2="373"/>
<text font-size="11" x="1161" y="30" clip-path="url(#clipPath2)" stroke="none" xml:space="preserve">0.95</text>
<text font-size="11" x="1161" y="389" clip-path="url(#clipPath2)" stroke="none" xml:space="preserve">0.95</text>
<line clip-path="url(#clipPath2)" fill="none" x1="1182" x2="1182" y1="35" y2="37"/>
<line clip-path="url(#clipPath2)" fill="none" x1="1182" x2="1182" y1="375" y2="373"/>
<line clip-path="url(#clipPath2)" fill="none" x1="1194" x2="1194" y1="35" y2="37"/>
<line clip-path="url(#clipPath2)" fill="none" x1="1194" x2="1194" y1="375" y2="373"/>
<line clip-path="url(#clipPath2)" fill="none" x1="1206" x2="1206" y1="35" y2="37"/>
<line clip-path="url(#clipPath2)" fill="none" x1="1206" x2="1206" y1="375" y2="373"/>
<line clip-path="url(#clipPath2)" fill="none" x1="1218" x2="1218" y1="35" y2="37"/>
<line clip-path="url(#clipPath2)" fill="none" x1="1218" x2="1218" y1="375" y2="373"/>
<line clip-path="url(#clipPath2)" fill="none" x1="27" x2="27" y1="39" y2="371"/>
<line clip-path="url(#clipPath2)" fill="none" x1="1233" x2="1233" y1="39" y2="371"/>
<line clip-path="url(#clipPath2)" fill="none" x1="23" x2="27" y1="371" y2="371"/>
<line clip-path="url(#clipPath2)" fill="none" x1="1237" x2="1233" y1="371" y2="371"/>
<text font-size="11" x="17" y="376" clip-path="url(#clipPath2)" stroke="none" xml:space="preserve">0</text>
<text font-size="11" x="1240" y="376" clip-path="url(#clipPath2)" stroke="none" xml:space="preserve">0</text>
<line clip-path="url(#clipPath2)" fill="none" x1="25" x2="27" y1="346" y2="346"/>
<line clip-path="url(#clipPath2)" fill="none" x1="1235" x2="1233" y1="346" y2="346"/>
<line clip-path="url(#clipPath2)" fill="none" x1="25" x2="27" y1="321" y2="321"/>
<line clip-path="url(#clipPath2)" fill="none" x1="1235" x2="1233" y1="321" y2="321"/>
<line clip-path="url(#clipPath2)" fill="none" x1="25" x2="27" y1="296" y2="296"/>
<line clip-path="url(#clipPath2)" fill="none" x1="1235" x2="1233" y1="296" y2="296"/>
<line clip-path="url(#clipPath2)" fill="none" x1="25" x2="27" y1="271" y2="271"/>
<line clip-path="url(#clipPath2)" fill="none" x1="1235" x2="1233" y1="271" y2="271"/>
<line clip-path="url(#clipPath2)" fill="none" x1="23" x2="27" y1="246" y2="246"/>
<line clip-path="url(#clipPath2)" fill="none" x1="1237" x2="1233" y1="246" y2="246"/>
<text font-size="11" x="7" y="251" clip-path="url(#clipPath2)" stroke="none" xml:space="preserve">0.5</text>
<text font-size="11" x="1240" y="251" clip-path="url(#clipPath2)" stroke="none" xml:space="preserve">0.5</text>
<line clip-path="url(#clipPath2)" fill="none" x1="25" x2="27" y1="221" y2="221"/>
<line clip-path="url(#clipPath2)" fill="none" x1="1235" x2="1233" y1="221" y2="221"/>
<line clip-path="url(#clipPath2)" fill="none" x1="25" x2="27" y1="196" y2="196"/>
<line clip-path="url(#clipPath2)" fill="none" x1="1235" x2="1233" y1="196" y2="196"/>
<line clip-path="url(#clipPath2)" fill="none" x1="25" x2="27" y1="171" y2="171"/>
<line clip-path="url(#clipPath2)" fill="none" x1="1235" x2="1233" y1="171" y2="171"/>
<line clip-path="url(#clipPath2)" fill="none" x1="25" x2="27" y1="146" y2="146"/>
<line clip-path="url(#clipPath2)" fill="none" x1="1235" x2="1233" y1="146" y2="146"/>
<line clip-path="url(#clipPath2)" fill="none" x1="23" x2="27" y1="121" y2="121"/>
<line clip-path="url(#clipPath2)" fill="none" x1="1237" x2="1233" y1="121" y2="121"/>
<text font-size="11" x="7" y="126" clip-path="url(#clipPath2)" stroke="none" xml:space="preserve">1.0</text>
<text font-size="11" x="1240" y="126" clip-path="url(#clipPath2)" stroke="none" xml:space="preserve">1.0</text>
<line clip-path="url(#clipPath2)" fill="none" x1="25" x2="27" y1="97" y2="97"/>
<line clip-path="url(#clipPath2)" fill="none" x1="1235" x2="1233" y1="97" y2="97"/>
<line clip-path="url(#clipPath2)" fill="none" x1="25" x2="27" y1="72" y2="72"/>
<line clip-path="url(#clipPath2)" fill="none" x1="1235" x2="1233" y1="72" y2="72"/>
<line clip-path="url(#clipPath2)" fill="none" x1="25" x2="27" y1="47" y2="47"/>
<line clip-path="url(#clipPath2)" fill="none" x1="1235" x2="1233" y1="47" y2="47"/>
</g>
</g>
</svg>
